<svg xmlns="http://www.w3.org/2000/svg" width="3000" height="3000" viewBox="0 0 3000 3000">
  <defs>
    <filter id="txtShadow"><feDropShadow dx="0" dy="6" stdDeviation="8" flood-color="#111111" flood-opacity="0.25"/></filter>
    <filter id="cardShadow"><feDropShadow dx="0" dy="24" stdDeviation="40" flood-color="#111111" flood-opacity="0.15"/></filter>
    <pattern id="paper" width="40" height="40" patternUnits="userSpaceOnUse">
      <rect width="40" height="40" fill="#F4F4F4"/>
      <circle cx="6" cy="9" r="1.2" fill="#e9e9e9"/>
      <circle cx="22" cy="14" r="0.9" fill="#ececec"/>
      <circle cx="30" cy="28" r="1.1" fill="#ececec"/>
      <circle cx="14" cy="32" r="0.9" fill="#efefef"/>
      <circle cx="36" cy="6" r="0.9" fill="#ececec"/>
    </pattern>
  </defs>
  <rect width="3000" height="3000" fill="url(#paper)"/>
  <g transform="translate(180,180)" filter="url(#cardShadow)">
    <rect x="0" y="0" width="2640" height="2640" rx="180" ry="180" fill="white" stroke="#e6e6e6" stroke-width="6"/>
    <text x="1320" y="360" text-anchor="middle" font-family="Montserrat,Arial,Helvetica,sans-serif" font-weight="900" font-size="260" fill="#111111" letter-spacing="24" filter="url(#txtShadow)">THE</text>
    <g transform="translate(0,220)">
      <path d="M1500 760
               C1500 660 1580 580 1680 580
               C1820 580 1920 700 1920 840
               C1920 1100 1620 1280 1500 1440
               C1380 1280 1080 1100 1080 840
               C1080 700 1180 580 1320 580
               C1420 580 1500 660 1500 760 Z"
            fill="#FF2E83"/>
      <circle cx="1840" cy="660" r="56" fill="white" opacity="0.9"/>
      <path d="M1496 980 C1508 1040 1518 1100 1498 1158 C1478 1216 1446 1210 1448 1160 C1450 1110 1480 1060 1496 980 Z" fill="#FF2E83"/>
      <g transform="rotate(-18 1500 900)">
        <line x1="760" y1="900" x2="1880" y2="900" stroke="#2A2A2A" stroke-width="40" stroke-linecap="round"/>
        <polygon points="1880,900 1780,860 1780,940" fill="#2A2A2A"/>
        <polygon points="760,900 710,860 710,940" fill="#2A2A2A"/>
        <polygon points="760,900 720,880 720,920" fill="#2A2A2A" opacity="0.85"/>
      </g>
    </g>
    <text x="1320" y="2260" text-anchor="middle" font-family="Montserrat,Arial,Helvetica,sans-serif" font-weight="900" font-size="300" fill="#111111" letter-spacing="18" filter="url(#txtShadow)">WORSTSHIP</text>
    <text x="1320" y="2400" text-anchor="middle" font-family="Montserrat,Arial,Helvetica,sans-serif" font-weight="600" font-size="90" fill="#2A2A2A" opacity="0.8" letter-spacing="8">Bad Relationships. Good Stories.</text>
  </g>
</svg>